<mxfile host="app.diagrams.net" modified="2023-10-24T09:10:24.492Z" agent="Mozilla/5.0 (Windows NT 10.0; Win64; x64) AppleWebKit/537.36 (KHTML, like Gecko) Chrome/95.0.4638.69 Safari/537.36" version="22.0.6" etag="E3kgbrNlNv2qNmV7gimn" type="github">
  <diagram name="第 1 页" id="TsHfsV_to4o9JiaDUIQo">
    <mxGraphModel>
      <root>
        <mxCell id="0" />
        <mxCell id="1" parent="0" />
      </root>
    </mxGraphModel>
  </diagram>
</mxfile>
